<svg width="600" height="600" viewBox="0 0 600 600" fill="none" xmlns="http://www.w3.org/2000/svg">
<path d="M394.683 472.832H261.806C264.609 478.701 266.191 485.252 266.191 492.187C266.191 504.541 261.155 515.744 253.038 523.865L252.987 523.915C244.866 532.036 233.663 537.068 221.294 537.068C208.94 537.068 197.737 532.033 189.616 523.915L189.565 523.865C181.444 515.744 176.412 504.541 176.412 492.187C176.412 485.252 177.998 478.701 180.812 472.832H150.153C136.199 472.832 123.511 467.13 114.324 457.943C105.137 448.756 99.4349 436.088 99.4349 422.114C99.4349 408.159 105.137 395.471 114.324 386.303C123.511 377.116 136.179 371.414 150.153 371.414H167.159L152.339 316.063C152.188 315.598 152.056 315.129 151.956 314.645L146.223 293.22L128.95 228.751C128.798 228.286 128.667 227.817 128.566 227.332L109.626 156.627C109.475 156.177 109.358 155.728 109.257 155.259L91.1003 87.5224H39.7687C32.7175 87.5224 27 81.8048 27 74.7687C27 67.7175 32.7177 62 39.7687 62H100.872V62.0155C106.508 62.0155 111.676 65.7834 113.191 71.47L131.515 139.857H558.844V139.873C559.929 139.873 561.026 140.005 562.146 140.307C568.949 142.125 572.985 149.11 571.167 155.914L552.029 227.352C551.928 227.817 551.812 228.286 551.661 228.72L528.639 314.648C528.538 315.133 528.407 315.598 528.255 316.067L509.299 386.788C508.098 392.591 502.965 396.94 496.794 396.94H150.134C143.214 396.94 136.93 399.774 132.361 404.344C127.794 408.91 124.957 415.213 124.957 422.117C124.957 429.036 127.79 435.32 132.361 439.89C136.927 444.456 143.23 447.294 150.134 447.294H435.139C447.492 447.294 458.695 452.329 466.832 460.447L466.883 460.497C475.004 468.618 480.036 479.821 480.036 492.191C480.036 504.545 475.016 515.747 466.883 523.869L466.832 523.919C458.711 532.04 447.508 537.072 435.139 537.072C422.785 537.072 411.582 532.037 403.445 523.919L403.394 523.869C395.273 515.748 390.242 504.545 390.242 492.191C390.242 485.256 391.808 478.705 394.641 472.836L394.683 472.832ZM174.251 299.299H265.745L260.043 237.512H157.691L165.611 267.055L174.251 299.299ZM291.289 299.299H389.335L395.037 237.512H285.59L291.308 299.299H291.289ZM414.877 299.299H506.387L522.944 237.512H420.592L414.89 299.299H414.877ZM499.537 324.825H412.527L408.225 371.407H487.066L499.537 324.825ZM386.984 324.825H293.656L297.959 371.407H382.685L386.988 324.825H386.984ZM268.11 324.825H181.085L193.571 371.407H272.413L268.11 324.825ZM150.853 211.974H257.69L253.387 165.392H138.383L150.869 211.974H150.853ZM283.223 211.974H397.394L401.697 165.392H278.912L283.215 211.974H283.223ZM422.937 211.974H529.774L542.26 165.392H427.236L422.933 211.974H422.937ZM448.878 478.462C445.378 474.977 440.544 472.825 435.175 472.825C429.806 472.825 424.957 474.977 421.472 478.462C417.987 481.962 415.82 486.815 415.82 492.184C415.82 497.553 417.987 502.402 421.472 505.887C424.972 509.372 429.806 511.539 435.175 511.539C440.544 511.539 445.393 509.372 448.878 505.887C452.363 502.387 454.53 497.534 454.53 492.184C454.53 486.815 452.363 481.966 448.878 478.462ZM234.996 478.497C231.495 474.996 226.662 472.829 221.308 472.829C215.939 472.829 211.09 474.981 207.605 478.466C204.12 481.966 201.953 486.819 201.953 492.188C201.953 497.557 204.12 502.406 207.605 505.891C211.105 509.376 215.939 511.543 221.308 511.543C226.677 511.543 231.527 509.376 235.031 505.891C238.515 502.391 240.667 497.538 240.667 492.188C240.667 486.835 238.5 482 235 478.5L234.996 478.497Z" fill="currentColor"/>
</svg>