<svg width="69" height="8" viewBox="0 0 69 8" fill="none" xmlns="http://www.w3.org/2000/svg">
<path d="M3.12802 7.12789C2.47177 7.12789 1.92915 6.99152 1.50018 6.71879C1.0712 6.44323 0.770064 6.05402 0.596768 5.55118C0.426314 5.0455 0.397905 4.45033 0.511541 3.76567C0.622337 3.09237 0.848189 2.50146 1.1891 1.99294C1.53001 1.48158 1.95614 1.08385 2.46751 0.79976C2.98171 0.512829 3.54989 0.369363 4.17205 0.369363C4.57546 0.369363 4.9462 0.434704 5.28427 0.565385C5.62234 0.693226 5.90785 0.89209 6.1408 1.16198C6.37376 1.43186 6.53427 1.77561 6.62234 2.19323C6.7104 2.608 6.70614 3.10232 6.60955 3.67618L6.53711 4.14919H1.16779L1.33398 3.10942H5.22035C5.27148 2.81396 5.25444 2.55118 5.16921 2.32107C5.08398 2.08811 4.94194 1.90487 4.74308 1.77135C4.54421 1.63783 4.29563 1.57107 3.99734 1.57107C3.69336 1.57107 3.40927 1.64919 3.14506 1.80544C2.8837 1.95885 2.66353 2.15771 2.48455 2.40203C2.30558 2.64635 2.19194 2.90345 2.14364 3.17334L1.96893 4.1705C1.90643 4.57959 1.92063 4.9134 2.01154 5.17192C2.10245 5.43044 2.26154 5.62078 2.48881 5.74294C2.71609 5.8651 3.00302 5.92618 3.34961 5.92618C3.57688 5.92618 3.78711 5.89493 3.98029 5.83243C4.17347 5.76993 4.34535 5.67618 4.49592 5.55118C4.64933 5.42334 4.77717 5.26709 4.87944 5.08243L6.28995 5.24436C6.1337 5.62504 5.90501 5.95743 5.60387 6.24152C5.30273 6.52277 4.94194 6.74152 4.52148 6.89777C4.10387 7.05118 3.63938 7.12789 3.12802 7.12789Z" fill="#48E6AA"/>
<path d="M10.2104 7.12789C9.557 7.12789 9.02006 6.98442 8.59961 6.69749C8.17915 6.41056 7.88512 6.01425 7.71751 5.50857C7.55273 5.00004 7.52575 4.41482 7.63654 3.75289C7.7445 3.08811 7.96751 2.50146 8.30558 1.99294C8.64648 1.48158 9.07546 1.08385 9.59251 0.79976C10.1096 0.512829 10.6877 0.369363 11.3269 0.369363C11.8581 0.369363 12.3113 0.467374 12.6863 0.663397C13.0641 0.856579 13.3453 1.13073 13.53 1.48584C13.7175 1.83811 13.79 2.25004 13.7473 2.72164H12.2686C12.263 2.40629 12.165 2.14351 11.9746 1.93328C11.7843 1.72021 11.5059 1.61368 11.1394 1.61368C10.8212 1.61368 10.5286 1.69891 10.2615 1.86936C9.9945 2.03698 9.76864 2.27845 9.58398 2.59379C9.39933 2.90914 9.27148 3.28698 9.20046 3.72732C9.1266 4.17334 9.12802 4.55686 9.20472 4.87789C9.28427 5.19607 9.42773 5.44181 9.63512 5.6151C9.84535 5.78556 10.111 5.87078 10.432 5.87078C10.6593 5.87078 10.8709 5.82817 11.0669 5.74294C11.263 5.65487 11.4348 5.52845 11.5826 5.36368C11.7331 5.19891 11.851 4.99862 11.9363 4.76283H13.4107C13.2942 5.2259 13.0868 5.63641 12.7885 5.99436C12.4931 6.34948 12.1266 6.62789 11.6891 6.82959C11.2516 7.02845 10.7587 7.12789 10.2104 7.12789Z" fill="#48E6AA"/>
<path d="M17.1703 7.12789C16.5254 7.12789 15.9885 6.98584 15.5595 6.70175C15.1333 6.41766 14.8336 6.01851 14.6603 5.50431C14.487 4.9901 14.4558 4.39351 14.5666 3.71453C14.6774 3.04408 14.899 2.45743 15.2314 1.95459C15.5666 1.45175 15.9885 1.06254 16.497 0.786976C17.0083 0.508567 17.5808 0.369363 18.2143 0.369363C18.8592 0.369363 19.3947 0.512829 19.8208 0.79976C20.247 1.08385 20.5467 1.483 20.72 1.9972C20.8961 2.51141 20.9288 3.11084 20.818 3.7955C20.71 4.46311 20.487 5.04692 20.149 5.54692C19.8137 6.04692 19.3919 6.43612 18.8833 6.71453C18.3748 6.9901 17.8038 7.12789 17.1703 7.12789ZM17.2981 5.89209C17.6561 5.89209 17.97 5.7955 18.2399 5.60232C18.5126 5.40629 18.7356 5.14351 18.9089 4.81396C19.085 4.48158 19.2072 4.11226 19.2754 3.70601C19.3379 3.31396 19.3393 2.95885 19.2797 2.64067C19.22 2.31965 19.0922 2.06539 18.8961 1.87789C18.7029 1.68754 18.4345 1.59237 18.0907 1.59237C17.7328 1.59237 17.416 1.69181 17.1404 1.89067C16.8677 2.08669 16.6447 2.3509 16.4714 2.68328C16.2981 3.01283 16.1788 3.38073 16.1135 3.78698C16.0481 4.17902 16.0453 4.53414 16.1049 4.85232C16.1646 5.1705 16.2924 5.42334 16.4885 5.61084C16.6845 5.79834 16.9544 5.89209 17.2981 5.89209Z" fill="#48E6AA"/>
<path d="M21.6032 7.00004L22.6941 0.45459H24.1728L23.9853 1.56681H24.0662C24.2651 1.19181 24.5392 0.899192 24.8887 0.688965C25.2381 0.475897 25.6316 0.369363 26.0691 0.369363C26.5094 0.369363 26.8645 0.477317 27.1344 0.693226C27.4071 0.906294 27.5748 1.19749 27.6373 1.56681H27.7054C27.91 1.20033 28.2026 0.909135 28.5833 0.693226C28.9668 0.477317 29.3972 0.369363 29.8745 0.369363C30.4711 0.369363 30.9284 0.559704 31.2466 0.940385C31.5648 1.32107 31.6628 1.87647 31.5407 2.60658L30.8077 7.00004H29.2651L29.964 2.84521C30.0265 2.43896 29.964 2.14209 29.7765 1.95459C29.5918 1.76425 29.3432 1.66908 29.0307 1.66908C28.6586 1.66908 28.3489 1.78414 28.1017 2.01425C27.8574 2.24436 27.7069 2.5455 27.65 2.91766L26.964 7.00004H25.4512L26.1586 2.78129C26.2097 2.44323 26.15 2.17334 25.9796 1.97164C25.812 1.76993 25.5648 1.66908 25.2381 1.66908C25.0165 1.66908 24.8049 1.7259 24.6032 1.83953C24.4015 1.95317 24.2296 2.11226 24.0875 2.31681C23.9483 2.51851 23.8574 2.75289 23.8148 3.01993L23.15 7.00004H21.6032Z" fill="#48E6AA"/>
<path d="M32.3727 7.00004L33.4636 0.45459H34.9423L34.7548 1.56681H34.8358C35.0346 1.19181 35.3088 0.899192 35.6582 0.688965C36.0076 0.475897 36.4011 0.369363 36.8386 0.369363C37.2789 0.369363 37.6341 0.477317 37.9039 0.693226C38.1767 0.906294 38.3443 1.19749 38.4068 1.56681H38.475C38.6795 1.20033 38.9721 0.909135 39.3528 0.693226C39.7363 0.477317 40.1667 0.369363 40.644 0.369363C41.2406 0.369363 41.698 0.559704 42.0162 0.940385C42.3343 1.32107 42.4324 1.87647 42.3102 2.60658L41.5772 7.00004H40.0346L40.7335 2.84521C40.796 2.43896 40.7335 2.14209 40.546 1.95459C40.3613 1.76425 40.1127 1.66908 39.8002 1.66908C39.4281 1.66908 39.1184 1.78414 38.8713 2.01425C38.627 2.24436 38.4764 2.5455 38.4196 2.91766L37.7335 7.00004H36.2207L36.9281 2.78129C36.9792 2.44323 36.9196 2.17334 36.7491 1.97164C36.5815 1.76993 36.3343 1.66908 36.0076 1.66908C35.786 1.66908 35.5744 1.7259 35.3727 1.83953C35.171 1.95317 34.9991 2.11226 34.8571 2.31681C34.7179 2.51851 34.627 2.75289 34.5843 3.01993L33.9196 7.00004H32.3727Z" fill="#5B48E6"/>
<path d="M46.0186 7.12789C45.3624 7.12789 44.8198 6.99152 44.3908 6.71879C43.9618 6.44323 43.6607 6.05402 43.4874 5.55118C43.3169 5.0455 43.2885 4.45033 43.4022 3.76567C43.513 3.09237 43.7388 2.50146 44.0797 1.99294C44.4206 1.48158 44.8468 1.08385 45.3581 0.79976C45.8723 0.512829 46.4405 0.369363 47.0627 0.369363C47.4661 0.369363 47.8368 0.434704 48.1749 0.565385C48.513 0.693226 48.7985 0.89209 49.0314 1.16198C49.2644 1.43186 49.4249 1.77561 49.513 2.19323C49.601 2.608 49.5968 3.10232 49.5002 3.67618L49.4277 4.14919H44.0584L44.2246 3.10942H48.111C48.1621 2.81396 48.1451 2.55118 48.0598 2.32107C47.9746 2.08811 47.8326 1.90487 47.6337 1.77135C47.4348 1.63783 47.1863 1.57107 46.888 1.57107C46.584 1.57107 46.2999 1.64919 46.0357 1.80544C45.7743 1.95885 45.5542 2.15771 45.3752 2.40203C45.1962 2.64635 45.0826 2.90345 45.0343 3.17334L44.8596 4.1705C44.7971 4.57959 44.8113 4.9134 44.9022 5.17192C44.9931 5.43044 45.1522 5.62078 45.3794 5.74294C45.6067 5.8651 45.8936 5.92618 46.2402 5.92618C46.4675 5.92618 46.6777 5.89493 46.8709 5.83243C47.0641 5.76993 47.236 5.67618 47.3865 5.55118C47.54 5.42334 47.6678 5.26709 47.7701 5.08243L49.1806 5.24436C49.0243 5.62504 48.7956 5.95743 48.4945 6.24152C48.1934 6.52277 47.8326 6.74152 47.4121 6.89777C46.9945 7.05118 46.53 7.12789 46.0186 7.12789Z" fill="#48E6AA"/>
<path d="M50.263 7.00004L51.3539 0.45459H52.8496L52.6664 1.5455H52.7346C52.9135 1.16766 53.1664 0.876465 53.4931 0.67192C53.8226 0.464533 54.1749 0.36084 54.5499 0.36084C54.638 0.36084 54.7331 0.365101 54.8354 0.373624C54.9377 0.379306 55.0257 0.389249 55.0996 0.403453L54.861 1.82249C54.7956 1.79976 54.6934 1.77987 54.5542 1.76283C54.4178 1.74294 54.2828 1.733 54.1493 1.733C53.8681 1.733 53.6067 1.79408 53.3652 1.91624C53.1266 2.03556 52.9249 2.20175 52.7601 2.41482C52.5953 2.62789 52.4888 2.87362 52.4405 3.15203L51.8056 7.00004H50.263Z" fill="#48E6AA"/>
<path d="M57.601 7.12789C56.9476 7.12789 56.4107 6.98442 55.9902 6.69749C55.5698 6.41056 55.2757 6.01425 55.1081 5.50857C54.9434 5.00004 54.9164 4.41482 55.0272 3.75289C55.1351 3.08811 55.3581 2.50146 55.6962 1.99294C56.0371 1.48158 56.4661 1.08385 56.9831 0.79976C57.5002 0.512829 58.0783 0.369363 58.7175 0.369363C59.2488 0.369363 59.7019 0.467374 60.0769 0.663397C60.4547 0.856579 60.736 1.13073 60.9206 1.48584C61.1081 1.83811 61.1806 2.25004 61.138 2.72164H59.6593C59.6536 2.40629 59.5556 2.14351 59.3652 1.93328C59.1749 1.72021 58.8965 1.61368 58.53 1.61368C58.2118 1.61368 57.9192 1.69891 57.6522 1.86936C57.3851 2.03698 57.1593 2.27845 56.9746 2.59379C56.79 2.90914 56.6621 3.28698 56.5911 3.72732C56.5172 4.17334 56.5186 4.55686 56.5953 4.87789C56.6749 5.19607 56.8184 5.44181 57.0257 5.6151C57.236 5.78556 57.5016 5.87078 57.8226 5.87078C58.0499 5.87078 58.2615 5.82817 58.4576 5.74294C58.6536 5.65487 58.8255 5.52845 58.9732 5.36368C59.1238 5.19891 59.2417 4.99862 59.3269 4.76283H60.8013C60.6848 5.2259 60.4774 5.63641 60.1792 5.99436C59.8837 6.34948 59.5172 6.62789 59.0797 6.82959C58.6422 7.02845 58.1493 7.12789 57.601 7.12789Z" fill="#48E6AA"/>
<path d="M64.5694 7.12789C63.9132 7.12789 63.3706 6.99152 62.9416 6.71879C62.5126 6.44323 62.2115 6.05402 62.0382 5.55118C61.8677 5.0455 61.8393 4.45033 61.9529 3.76567C62.0637 3.09237 62.2896 2.50146 62.6305 1.99294C62.9714 1.48158 63.3975 1.08385 63.9089 0.79976C64.4231 0.512829 64.9913 0.369363 65.6135 0.369363C66.0169 0.369363 66.3876 0.434704 66.7257 0.565385C67.0637 0.693226 67.3493 0.89209 67.5822 1.16198C67.8152 1.43186 67.9757 1.77561 68.0637 2.19323C68.1518 2.608 68.1475 3.10232 68.051 3.67618L67.9785 4.14919H62.6092L62.7754 3.10942H66.6618C66.7129 2.81396 66.6958 2.55118 66.6106 2.32107C66.5254 2.08811 66.3833 1.90487 66.1845 1.77135C65.9856 1.63783 65.737 1.57107 65.4387 1.57107C65.1348 1.57107 64.8507 1.64919 64.5865 1.80544C64.3251 1.95885 64.1049 2.15771 63.926 2.40203C63.747 2.64635 63.6333 2.90345 63.585 3.17334L63.4103 4.1705C63.3478 4.57959 63.362 4.9134 63.4529 5.17192C63.5439 5.43044 63.7029 5.62078 63.9302 5.74294C64.1575 5.8651 64.4444 5.92618 64.791 5.92618C65.0183 5.92618 65.2285 5.89493 65.4217 5.83243C65.6149 5.76993 65.7868 5.67618 65.9373 5.55118C66.0907 5.42334 66.2186 5.26709 66.3208 5.08243L67.7314 5.24436C67.5751 5.62504 67.3464 5.95743 67.0453 6.24152C66.7441 6.52277 66.3833 6.74152 65.9629 6.89777C65.5453 7.05118 65.0808 7.12789 64.5694 7.12789Z" fill="#48E6AA"/>
</svg>